<svg width="240" height="80" viewBox="0 0 240 80" fill="none" xmlns="http://www.w3.org/2000/svg">
  <rect width="240" height="80" rx="18" fill="none"/>
  <path d="M74.9 39.6c0-6.7 5.5-10 5.8-10.2-3.2-4.6-8-5.2-9.7-5.3-4.1-.4-8 2.4-10.1 2.4-2.1 0-5.3-2.3-8.7-2.2-4.5.1-8.6 2.6-10.9 6.6-4.7 8.2-1.2 20.2 3.4 26.8 2.2 3.2 4.9 6.8 8.4 6.7 3.3-.1 4.6-2.2 8.7-2.2s5.2 2.2 8.8 2.1c3.6-.1 5.9-3.3 8.1-6.5 2.6-3.7 3.6-7.3 3.7-7.5-.1 0-7.4-2.8-7.5-10.7Z" fill="#111827"/>
  <path d="M68.3 19.7c1.8-2.2 3.1-5.3 2.7-8.4-2.6.1-5.8 1.7-7.7 3.9-1.7 2-3.2 5.2-2.8 8.2 3 .3 5.9-1.5 7.8-3.7Z" fill="#111827"/>
  <text x="96" y="49" font-family="Arial, Helvetica, sans-serif" font-size="26" font-weight="700" fill="#111827">Apple</text>
</svg>
