<svg width="250" height="80" viewBox="0 0 250 80" fill="none" xmlns="http://www.w3.org/2000/svg">
  <rect width="250" height="80" rx="18" fill="none"/>
  <path d="M42 47c9-20 19-30 31-30 11 0 19 8 29 23 10-15 18-23 29-23 14 0 25 13 31 30 4 12 1 17-7 17-8 0-13-7-22-21-8-13-12-18-18-18-6 0-11 6-20 21-9 15-15 18-22 18-8 0-13-5-9-17Z" stroke="#0866FF" stroke-width="8" stroke-linecap="round" stroke-linejoin="round"/>
  <text x="174" y="49" font-family="Arial, Helvetica, sans-serif" font-size="28" font-weight="700" fill="#1C2B33">Meta</text>
</svg>
